# xmcd
#
# Track frame offsets:
#  183
#  13303
#  23090
#  33280
#  43395
#  53523
#  64950
#  76110
#  87820
#  100383
#  110815
#  123610
#  135195
#  145995
#  155845
#  165678
#  173958
#  185283
#  195483
#  205473
#
# Disc length: 2888 seconds
#
# Revision: 2
# Processed by: cddbd v1.5.2PL0 Copyright (c) Steve Scherf et al.
# Submitted via: Collectorz.com Music Collector 6.9
#
DISCID=190b4614
DTITLE=Various Artist - Authentic Sun Blues Rockabilly Rock'n'roll CD 2
DYEAR=1996
DGENRE=Rock and Roll
TTITLE0=Jerry Lee Lewis - Whole Lotta Shakin' Goin' on
TTITLE1=Sonny Burgess - Red Headed Woman
TTITLE2=Carl Perkins - Blue Suede Shoes
TTITLE3=Billy Lee Riley - Rock with Me Baby
TTITLE4=Johnny Cash - Get Rhythm
TTITLE5=Billy Lee Riley - Red Hot
TTITLE6=Jerry Lee Lewis - What'd I Say
TTITLE7=Jimmy Wages - Miss Pearl
TTITLE8=Johnny Cash - Folsom Prison Blues
TTITLE9=Ray Harris - Come on Little Mama
TTITLE10=Carl Perkins - Honey Don't
TTITLE11=Edwin Bruce - Baby That's Good
TTITLE12=Bill Justis And His Orchestra - Raunchy
TTITLE13=Warren Smith - I Got Love If You Want It
TTITLE14=Ray Smith - Willing and Ready
TTITLE15=Johnny Cash - Guess Things Happen That Way
TTITLE16=Carl Mann - Mona Lisa
TTITLE17=Rudy Grayzell - Judy
TTITLE18=Roy Orbison - Obby Dooby
TTITLE19=Jerry Lee Lewis - High School Confidential
EXTD=
EXTT0=
EXTT1=
EXTT2=
EXTT3=
EXTT4=
EXTT5=
EXTT6=
EXTT7=
EXTT8=
EXTT9=
EXTT10=
EXTT11=
EXTT12=
EXTT13=
EXTT14=
EXTT15=
EXTT16=
EXTT17=
EXTT18=
EXTT19=
PLAYORDER=
